<svg xmlns="http://www.w3.org/2000/svg" viewBox="0 0 320 72" width="320" height="72">
  <g transform="translate(4, 4)">
    <path d="M4 44 Q4 40 8 40 L28 42 Q32 42 32 46 L32 56 Q32 58 28 58 L8 56 Q4 56 4 52 Z" fill="none" stroke="#000000" stroke-width="1.5"/>
    <path d="M60 44 Q60 40 56 40 L36 42 Q32 42 32 46 L32 56 Q32 58 36 58 L56 56 Q60 56 60 52 Z" fill="none" stroke="#000000" stroke-width="1.5"/>
    <line x1="32" y1="42" x2="32" y2="58" stroke="#000000" stroke-width="1.5"/>
    <circle cx="32" cy="26" r="9" fill="#000000"/>
    <line x1="8" y1="36" x2="56" y2="36" stroke="#000000" stroke-width="1.5" stroke-linecap="round"/>
  </g>
  <text x="84" y="34" font-family="Georgia, 'Times New Roman', serif" font-size="20" font-weight="700" fill="#000000" letter-spacing="0.5">Travel Memory Book</text>
  <text x="84" y="54" font-family="Georgia, serif" font-size="11" font-style="italic" fill="#444444" letter-spacing="1.5">YOUR JOURNEYS, PRESERVED</text>
</svg>
